<svg width="74" height="40" viewBox="0 0 74 40" fill="none" xmlns="http://www.w3.org/2000/svg">
<path d="M23.8868 37.5817L24.1859 38H24.7002H33.5502H35.5604L34.3478 36.3968L24.4053 23.2516L33.9462 10.7053L35.167 9.1H33.1502H24.8502H24.3483L24.0484 9.50245L19.0107 16.2625L14.1094 9.51244L13.8099 9.1H13.3002H4.5502H2.55169L3.74984 10.6995L13.2963 23.4441L3.4055 36.393L2.17801 38H4.2002H12.7002H13.2045L13.5043 37.5945L18.7867 30.4502L23.8868 37.5817ZM58.1188 9.5L52.3871 15.9879L52.1365 16.2716V16.65V22V23H53.1365H56.8365C58.9423 23 60.3478 23.3514 61.2002 23.911C61.9792 24.4224 62.3865 25.1646 62.3865 26.3C62.3865 27.4055 61.964 28.2098 61.0791 28.8197C60.1343 29.4374 58.7535 29.8 56.8365 29.8C55.1055 29.8 53.4065 29.549 51.7364 29.046C50.1019 28.5104 48.6717 27.7764 47.4365 26.85L46.4842 26.1358L45.945 27.197L42.795 33.397L42.4069 34.1609L43.1022 34.6615C44.8803 35.9417 47.0079 36.9203 49.4654 37.6125L49.4734 37.6148L49.4814 37.6169C51.9641 38.2721 54.4832 38.6 57.0365 38.6C60.3055 38.6 63.128 38.0675 65.4644 36.9538C67.7997 35.8565 69.5958 34.3746 70.7836 32.4815L70.7882 32.4741C71.9517 30.5833 72.5365 28.5186 72.5365 26.3C72.5365 23.4425 71.6428 20.9935 69.8239 19.0245C68.3369 17.3873 66.3476 16.2683 63.9148 15.626L70.6881 7.90969L70.9365 7.62663V7.25V2V1H69.9365H45.4365H44.4365V2V8.5V9.5H45.4365H58.1188Z" stroke="#F2994A" stroke-width="2"/>
</svg>
